<svg height="512pt" viewBox="0 -66 512 512" width="512pt" xmlns="http://www.w3.org/2000/svg"><g fill-rule="evenodd"><path d="m250.277344 106.683594c-5.9375-11.046875-16.042969-19.519532-28.15625-23.253906-19.546875 6.023437-33.871094 24.417968-33.871094 46.019531v72.511719c.175781.3125.355469.625.527344.941406 1.863281-.304688 3.773437-.464844 5.722656-.464844s3.859375.160156 5.722656.46875c8.089844-15.058594 23.917969-25.34375 42.015625-25.34375h13.761719c-19.550781 0-35.398438-15.96875-35.398438-35.671875 0-17.734375 12.847657-32.449219 29.675782-35.207031zm0 0" fill="#ff916c"/><path d="m373.277344 106.683594c-5.898438-10.972656-15.910156-19.410156-27.914063-23.175782-19.417969 6.101563-33.613281 24.433594-33.613281 45.945313v73.402344c.007812.015625.019531.03125.027344.046875 1.863281-.304688 3.773437-.464844 5.722656-.464844s3.859375.160156 5.722656.46875c8.089844-15.054688 23.917969-25.34375 42.015625-25.34375h13.761719c-19.550781 0-35.394531-15.96875-35.394531-35.667969 0-17.738281 12.84375-32.453125 29.671875-35.210937zm0 0" fill="#c22c65"/><path d="m188.777344 202.902344c-6.035156-11.230469-16.378906-19.804688-28.757813-23.4375-19.878906 5.816406-34.519531 24.363281-34.519531 46.207031v70.4375c4.738281 7.464844 7.5 16.3125 7.5 25.78125 0-26.460937 21.480469-48.109375 47.734375-48.109375h13.765625c-19.550781 0-35.398438-15.972656-35.398438-35.671875 0-17.738281 12.847657-32.449219 29.675782-35.207031zm0 0" fill="#55cd8e"/><path d="m250.832031 225.671875v74.546875c3.296875 6.523438 5.167969 13.886719 5.167969 21.671875 0-26.460937 21.480469-48.109375 47.734375-48.109375h13.765625c-19.550781 0-35.394531-15.96875-35.394531-35.671875 0-17.734375 12.84375-32.449219 29.671875-35.203125-5.847656-10.882812-15.742188-19.269531-27.609375-23.085938-19.273438 6.191407-33.335938 24.445313-33.335938 45.851563zm0 0" fill="#876e67"/><path d="m375.832031 225.671875v79.066406c2.039063 5.335938 3.167969 11.117188 3.167969 17.152344 0-26.460937 21.480469-48.109375 47.734375-48.109375h13.765625c-19.550781 0-35.394531-15.96875-35.394531-35.671875 0-17.738281 12.84375-32.449219 29.671875-35.203125-5.679688-10.574219-15.179688-18.789062-26.597656-22.746094-18.761719 6.492188-32.347657 24.476563-32.347657 45.511719zm0 0" fill="#4bc1d7"/><path d="m208.75 13.019531c-12.449219 5.527344-21.144531 18.0625-21.144531 32.652344s8.695312 27.125 21.144531 32.652344c12.449219-5.527344 21.144531-18.0625 21.144531-32.652344s-8.695312-27.125-21.144531-32.652344zm0 0" fill="#f1dbc8"/><path d="m331.75 13.019531c-12.449219 5.527344-21.144531 18.0625-21.144531 32.652344s8.695312 27.125 21.144531 32.652344c12.449219-5.527344 21.144531-18.0625 21.144531-32.652344s-8.695312-27.125-21.144531-32.652344zm0 0" fill="#f1dbc8"/><path d="m147.25 109.238281c-12.449219 5.527344-21.144531 18.0625-21.144531 32.65625 0 14.589844 8.695312 27.125 21.144531 32.652344 12.449219-5.527344 21.144531-18.0625 21.144531-32.652344 0-14.589843-8.695312-27.128906-21.144531-32.65625zm0 0" fill="#f1dbc8"/><path d="m270.25 109.238281c-12.449219 5.527344-21.144531 18.0625-21.144531 32.65625 0 14.589844 8.695312 27.125 21.144531 32.652344 12.449219-5.527344 21.144531-18.0625 21.144531-32.652344 0-14.59375-8.695312-27.128906-21.144531-32.65625zm0 0" fill="#f1dbc8"/><path d="m393.246094 109.238281c-12.445313 5.527344-21.140625 18.066407-21.140625 32.65625 0 14.589844 8.695312 27.125 21.144531 32.652344 12.449219-5.527344 21.144531-18.0625 21.144531-32.652344 0-14.59375-8.695312-27.128906-21.148437-32.65625zm0 0" fill="#f1dbc8"/><path d="m85.75 205.457031c-12.449219 5.527344-21.144531 18.0625-21.144531 32.652344s8.695312 27.128906 21.144531 32.65625c12.449219-5.527344 21.144531-18.066406 21.144531-32.65625s-8.695312-27.125-21.144531-32.652344zm0 0" fill="#f1dbc8"/><path d="m208.75 205.457031c-12.449219 5.527344-21.148438 18.0625-21.148438 32.652344s8.699219 27.128906 21.148438 32.65625c12.449219-5.527344 21.144531-18.066406 21.144531-32.65625s-8.695312-27.128906-21.144531-32.652344zm0 0" fill="#f1dbc8"/><path d="m331.75 205.457031c-12.449219 5.523438-21.144531 18.0625-21.144531 32.652344s8.695312 27.128906 21.144531 32.65625c12.449219-5.527344 21.144531-18.066406 21.144531-32.65625s-8.695312-27.125-21.144531-32.652344zm0 0" fill="#f1dbc8"/><path d="m454.75 205.457031c-12.449219 5.523438-21.148438 18.0625-21.148438 32.652344s8.699219 27.128906 21.148438 32.652344c12.449219-5.527344 21.144531-18.0625 21.144531-32.652344s-8.695312-27.125-21.144531-32.652344zm0 0" fill="#f1dbc8"/><path d="m464.832031 274.992188c-21.210937 4.882812-37.164062 24.097656-37.164062 46.898437v48.109375h74.332031v-48.109375c0-22.800781-15.957031-42.015625-37.167969-46.898437zm0 0" fill="#bdd377"/><path d="m341.832031 274.992188c-21.210937 4.882812-37.164062 24.097656-37.164062 46.898437v48.109375h74.332031v-48.109375c0-22.800781-15.957031-42.015625-37.167969-46.898437zm0 0" fill="#ffbd50"/><path d="m218.832031 274.992188c-21.210937 4.882812-37.164062 24.097656-37.164062 46.898437v48.109375h74.332031v-48.109375c0-22.800781-15.957031-42.015625-37.167969-46.898437zm0 0" fill="#76c8d6"/><path d="m95.832031 274.992188c-21.210937 4.882812-37.164062 24.097656-37.164062 46.898437v48.109375h74.332031v-48.109375c0-22.800781-15.957031-42.015625-37.167969-46.898437zm0 0" fill="#f13d7c"/></g><path d="m432.234375 322.820312h-.238281c-5.519532 0-10 4.476563-10 10 0 5.523438 4.480468 10 10 10h.238281c5.523437 0 10-4.476562 10-10 0-5.523437-4.476563-10-10-10zm0 0"/><path d="m502 380c5.523438 0 10-4.476562 10-10v-37.160156c0-.007813 0-.015625 0-.023438 0-.003906 0-.011718 0-.019531v-10.90625c0-24.601563-15.375-45.667969-37.015625-54.128906 6.792969-7.988281 10.910156-18.339844 10.910156-29.652344 0-25.183594-20.363281-45.671875-45.394531-45.671875-.144531 0-.289062.011719-.433594.011719-6.65625-9.589844-15.925781-16.84375-26.523437-20.976563 6.757812-7.976562 10.851562-18.304687 10.851562-29.582031 0-25.183594-20.363281-45.671875-45.394531-45.671875-.144531 0-.285156.011719-.429688.011719-6.660156-9.589844-15.929687-16.84375-26.527343-20.976563 6.757812-7.976562 10.851562-18.304687 10.851562-29.582031 0-25.183594-20.363281-45.671875-45.394531-45.671875s-45.394531 20.488281-45.394531 45.671875c0 11.277344 4.089843 21.605469 10.847656 29.582031-10.597656 4.132813-19.863281 11.386719-26.523437 20.976563-.144532 0-.285157-.007813-.429688-.007813s-.285156.007813-.429688.007813c-6.660156-9.589844-15.929687-16.84375-26.527343-20.976563 6.757812-7.976562 10.851562-18.304687 10.851562-29.582031 0-25.183594-20.363281-45.671875-45.394531-45.671875s-45.398438 20.488281-45.398438 45.671875c0 11.277344 4.09375 21.605469 10.851563 29.582031-10.597656 4.132813-19.867187 11.386719-26.523437 20.976563-.144532 0-.285157-.007813-.429688-.007813-25.03125 0-45.394531 20.488282-45.394531 45.671875 0 11.277344 4.089843 21.601563 10.847656 29.582031-10.59375 4.132813-19.863281 11.382813-26.523437 20.972657-.144532 0-.285157-.011719-.429688-.011719-25.03125 0-45.394531 20.488281-45.394531 45.671875 0 11.3125 4.117187 21.667969 10.910156 29.652344-21.640625 8.464843-37.015625 29.527343-37.015625 54.128906v48.109375c0 5.523438 4.476562 10 10 10zm-36.105469-141.890625c0 14.15625-11.390625 25.671875-25.394531 25.671875s-25.398438-11.515625-25.398438-25.671875 11.394532-25.671875 25.398438-25.671875 25.394531 11.515625 25.394531 25.671875zm-70.792969 0c0 11.3125 4.117188 21.664063 10.914063 29.652344-11.039063 4.316406-20.449219 11.898437-27.015625 21.574219-6.566406-9.675782-15.980469-17.257813-27.015625-21.574219 6.792969-7.988281 10.910156-18.339844 10.910156-29.652344 0-17.234375-9.539062-32.265625-23.585937-40.039063 6.921875-6.640624 16.140625-10.507812 25.925781-10.507812h27.527344c9.785156 0 19.003906 3.867188 25.925781 10.507812-14.042969 7.773438-23.585938 22.804688-23.585938 40.039063zm-139.101562 51.226563c-6.566406-9.675782-15.980469-17.257813-27.015625-21.574219 6.792969-7.984375 10.910156-18.339844 10.910156-29.652344 0-17.230469-9.539062-32.265625-23.582031-40.039063 6.917969-6.640624 16.136719-10.507812 25.921875-10.507812h27.527344c9.785156 0 19.003906 3.867188 25.925781 10.507812-14.042969 7.773438-23.585938 22.808594-23.585938 40.039063 0 11.3125 4.117188 21.667969 10.914063 29.652344-11.039063 4.316406-20.449219 11.898437-27.015625 21.574219zm-86.898438-51.226563c0-14.15625 11.394532-25.671875 25.398438-25.671875s25.394531 11.515625 25.394531 25.671875-11.390625 25.671875-25.394531 25.671875-25.398438-11.515625-25.398438-25.671875zm86.898438-121.886719c14.003906 0 25.394531 11.515625 25.394531 25.671875 0 14.152344-11.390625 25.667969-25.394531 25.667969s-25.394531-11.515625-25.394531-25.667969c0-14.15625 11.390625-25.671875 25.394531-25.671875zm36.101562 121.886719c0-14.15625 11.394532-25.671875 25.398438-25.671875s25.394531 11.515625 25.394531 25.671875-11.390625 25.671875-25.394531 25.671875-25.398438-11.515625-25.398438-25.671875zm112.292969-96.214844c0 14.152344-11.390625 25.667969-25.394531 25.667969s-25.394531-11.515625-25.394531-25.667969c0-14.15625 11.390625-25.671875 25.394531-25.671875s25.394531 11.515625 25.394531 25.671875zm-86.894531-121.894531c14.003906 0 25.394531 11.515625 25.394531 25.671875 0 14.152344-11.390625 25.671875-25.394531 25.671875s-25.394531-11.519531-25.394531-25.671875c0-14.15625 11.390625-25.671875 25.394531-25.671875zm-13.765625 71.34375h27.527344c9.785156 0 19.007812 3.867188 25.925781 10.507812-14.042969 7.773438-23.582031 22.804688-23.582031 40.042969 0 11.277344 4.089843 21.601563 10.847656 29.582031-10.597656 4.132813-19.863281 11.382813-26.523437 20.972657-.144532 0-.285157-.011719-.429688-.011719s-.285156.011719-.433594.011719c-6.65625-9.589844-15.925781-16.839844-26.523437-20.972657 6.757812-7.980468 10.851562-18.304687 10.851562-29.582031 0-17.238281-9.539062-32.269531-23.585937-40.042969 6.921875-6.640624 16.140625-10.507812 25.925781-10.507812zm-109.234375-71.34375c14.003906 0 25.394531 11.515625 25.394531 25.671875 0 14.152344-11.390625 25.671875-25.394531 25.671875s-25.398438-11.519531-25.398438-25.671875c0-14.15625 11.394532-25.671875 25.398438-25.671875zm-13.765625 71.34375h27.527344c9.785156 0 19.007812 3.867188 25.925781 10.507812-14.042969 7.773438-23.582031 22.804688-23.582031 40.042969 0 11.277344 4.089843 21.601563 10.847656 29.582031-10.59375 4.132813-19.863281 11.382813-26.523437 20.972657-.144532 0-.285157-.011719-.429688-.011719s-.285156.011719-.429688.011719c-6.660156-9.589844-15.929687-16.839844-26.523437-20.972657 6.757813-7.980468 10.847656-18.304687 10.847656-29.582031 0-17.238281-9.539062-32.269531-23.582031-40.042969 6.917969-6.640624 16.136719-10.507812 25.921875-10.507812zm-47.734375 24.878906c14.003906 0 25.394531 11.515625 25.394531 25.671875 0 14.152344-11.390625 25.667969-25.394531 25.667969s-25.394531-11.515625-25.394531-25.667969c0-14.15625 11.390625-25.671875 25.394531-25.671875zm-13.765625 71.339844h27.527344c9.785156 0 19.007812 3.867188 25.925781 10.507812-14.042969 7.773438-23.585938 22.808594-23.585938 40.039063 0 11.3125 4.117188 21.667969 10.910157 29.652344-11.035157 4.316406-20.445313 11.898437-27.015625 21.574219-6.566406-9.675782-15.976563-17.257813-27.011719-21.574219 6.792969-7.984375 10.910156-18.339844 10.910156-29.652344 0-17.230469-9.539062-32.265625-23.585937-40.039063 6.921875-6.640624 16.140625-10.507812 25.925781-10.507812zm-47.734375 24.875c14.003906 0 25.394531 11.519531 25.394531 25.671875 0 14.15625-11.390625 25.671875-25.394531 25.671875s-25.394531-11.515625-25.394531-25.671875 11.390625-25.671875 25.394531-25.671875zm-51.5 130.378906h31.035156c5.523438 0 10-4.476562 10-10 0-5.519531-4.476562-10-10-10h-31.035156v-.925781c0-21.015625 17.097656-38.109375 38.109375-38.109375h26.78125c21.011719 0 38.109375 17.097656 38.109375 38.109375v38.109375h-103zm123-20.925781c0-21.011719 17.097656-38.109375 38.109375-38.109375h26.78125c21.011719 0 38.109375 17.097656 38.109375 38.109375v38.109375h-103zm123 0c0-21.011719 17.097656-38.109375 38.109375-38.109375h26.78125c21.011719 0 38.109375 17.097656 38.109375 38.109375v38.109375h-103zm123 38.109375v-38.109375c0-21.011719 17.097656-38.109375 38.109375-38.109375h26.78125c21.011719 0 38.105469 17.097656 38.105469 38.109375v.929687h-31.03125c-5.523438 0-10 4.476563-10 10 0 5.523438 4.476562 10 10 10h31.03125v17.179688zm0 0"/><path d="m80 322.820312h-.234375c-5.523437 0-10 4.476563-10 10 0 5.523438 4.476563 10 10 10h.234375c5.523438 0 10-4.476562 10-10 0-5.523437-4.476562-10-10-10zm0 0"/></svg>