<svg id="Layer_1" enable-background="new 0 0 512 512" height="512" viewBox="0 0 512 512" width="512" xmlns="http://www.w3.org/2000/svg"><g><g><g><g><path d="m136 65.01 10 188.42h-70v-188.42c0-8.29 3.36-15.79 8.79-21.22s12.93-8.79 21.21-8.79c16.57 0 30 13.44 30 30.01z" fill="#997ab8"/><ellipse cx="106" cy="17.502" fill="#ffc796" rx="17.5" ry="17.502"/></g><g><path d="m196 65.01v188.42h-60v-188.42c0-8.29 3.36-15.79 8.79-21.22s12.93-8.79 21.21-8.79c16.57 0 30 13.44 30 30.01z" fill="#b77e5a"/><ellipse cx="166" cy="17.502" fill="#ffc796" rx="17.5" ry="17.502"/></g><g><path d="m256 65.01 10 188.42h-80l10-188.42c0-8.29 3.36-15.79 8.79-21.22s12.93-8.79 21.21-8.79c16.57 0 30 13.44 30 30.01z" fill="#f7775b"/><ellipse cx="226" cy="17.502" fill="#df9f7a" rx="17.5" ry="17.502"/></g><g><path d="m316 65.01v188.42h-60v-188.42c0-8.29 3.36-15.79 8.79-21.22s12.93-8.79 21.21-8.79c16.57 0 30 13.44 30 30.01z" fill="#ffc54b"/><ellipse cx="286" cy="17.502" fill="#ffc796" rx="17.5" ry="17.502"/></g><g><path d="m376 65.01 10 188.42h-80l10-188.42c0-8.29 3.36-15.79 8.79-21.22s12.93-8.79 21.21-8.79c16.57 0 30 13.44 30 30.01z" fill="#ffe26f"/><ellipse cx="346" cy="17.502" fill="#ffc796" rx="17.5" ry="17.502"/></g><g><path d="m436 65.01v188.42h-60v-188.42c0-8.29 3.36-15.79 8.79-21.22 3.98-3.98 9.07-6.85 14.76-8.08 2.08-.47 4.24-.71 6.45-.71 16.57 0 30 13.44 30 30.01z" fill="#d1e16f"/><ellipse cx="406" cy="17.502" fill="#df9f7a" rx="17.5" ry="17.502"/></g></g><g><path d="m76 79h60v174.43h-60z" fill="#6957a1"/><path d="m196 79h60v174.43h-60z" fill="#f25853"/><path d="m316 79h60v174.43h-60z" fill="#ffc54b"/></g><g><path d="m136 79h60v174.43h-60z" fill="#98654c"/><path d="m256 79h60v174.43h-60z" fill="#feac38"/><path d="m406 35c-2.21 0-4.37.24-6.45.71 3.85.99 7.29 3.01 10.01 5.73 3.98 3.98 6.44 9.48 6.44 15.56 0 12.15-9.85 22-22 22h-18v174.43h60v-188.42c0-16.57-13.43-30.01-30-30.01z" fill="#9ccc4b"/></g><g><g><path d="m466 170.26v90.91h-70l10-90.91c0-8.28 3.36-15.78 8.79-21.21 2.05-2.05 4.4-3.81 6.97-5.2 4.24-2.29 9.09-3.59 14.24-3.59 16.57 0 30 13.43 30 30z" fill="#997ab8"/><ellipse cx="436" cy="122.755" fill="#df9f7a" rx="17.5" ry="17.502"/></g><g><path d="m226 170.26 10 90.91h-80l10-90.91c0-8.28 3.36-15.78 8.79-21.21s12.93-8.79 21.21-8.79c16.57 0 30 13.43 30 30z" fill="#e6f8fc"/><ellipse cx="196" cy="122.755" fill="#ffc796" rx="17.5" ry="17.502"/></g><g><path d="m106 170.26 10 90.91h-70v-90.91c0-8.28 3.36-15.78 8.79-21.21s12.93-8.79 21.21-8.79c16.57 0 30 13.43 30 30z" fill="#ffe26f"/><ellipse cx="76" cy="122.755" fill="#ffc796" rx="17.5" ry="17.502"/></g><g><path d="m346 170.26 10 90.91h-80l10-90.91c0-8.28 3.36-15.78 8.79-21.21s12.93-8.79 21.21-8.79c16.57 0 30 13.43 30 30z" fill="#3a4b56"/><ellipse cx="316" cy="122.755" fill="#df9f7a" rx="17.5" ry="17.502"/></g><g><path d="m166 170.26v90.91h-60v-90.91c0-8.28 3.36-15.78 8.79-21.21s12.93-8.79 21.21-8.79c16.57 0 30 13.43 30 30z" fill="#d1e16f"/><ellipse cx="136" cy="122.755" fill="#df9f7a" rx="17.5" ry="17.502"/></g><g><path d="m286 170.26v90.91h-60v-90.91c0-8.28 3.36-15.78 8.79-21.21s12.93-8.79 21.21-8.79c16.57 0 30 13.43 30 30z" fill="#b77e5a"/><ellipse cx="256" cy="122.755" fill="#ffc796" rx="17.5" ry="17.502"/></g><g><path d="m406 170.26v90.91h-60v-90.91c0-8.28 3.36-15.78 8.79-21.21s12.93-8.79 21.21-8.79c16.57 0 30 13.43 30 30z" fill="#f7775b"/><ellipse cx="376" cy="122.755" fill="#ffc796" rx="17.5" ry="17.502"/></g></g><g><path d="m106 229.37h60v31.8h-60z" fill="#9ccc4b"/><path d="m226 229.37h60v31.8h-60z" fill="#98654c"/><path d="m346 229.37h60v31.8h-60z" fill="#f25853"/></g><g><path d="m46 229.37h60v31.8h-60z" fill="#ffc54b"/><path d="m166 229.37h60v31.8h-60z" fill="#d0edf5"/><path d="m286 229.37h60v31.8h-60z" fill="#26363f"/><path d="m466 170.26v90.91h-60v-31.8h12.14c11.12 0 20.12-9.01 20.12-20.12v-38.01c0-11.88-6.69-22.2-16.5-27.39 4.24-2.29 9.09-3.59 14.24-3.59 16.57 0 30 13.43 30 30z" fill="#6957a1"/></g></g><g><g><g><path d="m482.282 261.17c0 74.59-36.04 140.77-91.66 182.07l-79.73 27.68-15.55-6.52-242.37-101.56c-9.4-18.68-16.28-38.83-20.22-60.03l15.35-41.64z" fill="#7ac2ed"/><path d="m482.282 261.17c0 74.59-36.04 140.77-91.66 182.07l-79.73 27.68-15.55-6.52c86.82-26.76 149.93-107.64 149.93-203.23z" fill="#68a6dc"/><path d="m85.762 261.17c-7.98 18.93-22.51 35.41-53.01 41.64-2.51-13.5-3.82-27.42-3.82-41.64z" fill="#d1e16f"/><g fill="#d0edf5"><path d="m40.358 496.999h-32.857c-4.143 0-7.501 3.358-7.501 7.5s3.359 7.5 7.501 7.5h32.857c4.143 0 7.501-3.358 7.501-7.5s-3.358-7.5-7.501-7.5z"/><path d="m143.377 496.999h-67.863c-4.143 0-7.501 3.358-7.501 7.5s3.359 7.5 7.501 7.5h67.863c4.143 0 7.501-3.358 7.501-7.5.001-4.142-3.358-7.5-7.501-7.5z"/><path d="m27.505 479.999h62.862c4.143 0 7.501-3.358 7.501-7.5s-3.359-7.5-7.501-7.5h-62.862c-4.143 0-7.501 3.358-7.501 7.5s3.358 7.5 7.501 7.5z"/><path d="m414.954 496.999h-62.862c-4.143 0-7.501 3.358-7.501 7.5s3.359 7.5 7.501 7.5h62.862c4.143 0 7.501-3.358 7.501-7.5s-3.359-7.5-7.501-7.5z"/><path d="m504.403 464.998h-92.868c-4.143 0-7.501 3.358-7.501 7.5s3.359 7.5 7.501 7.5h92.868c4.143 0 7.501-3.358 7.501-7.5.001-4.142-3.358-7.5-7.501-7.5z"/></g><path d="m296.162 321.92c-7.14 16.33-58.72 12.6-71.33 0-9.76-9.76-14.28-43.03-8.19-60.75h41.43c22.65 16.36 44.62 45.81 38.09 60.75z" fill="#d1e16f"/><path d="m390.617 443.237c-37.707 28.001-84.426 44.572-135.015 44.572-55.17 0-105.73-19.701-145.027-52.462-23.844-19.861-43.528-44.532-57.601-72.503 89.307 0 34.106-60.032 75.514-60.032 55.33 0 48.189 89.813 78.415 105.414 29.856 15.421 52.16-16.881 94.608-16.881 32.246 0 32.596 28.101 54.59 42.952 7.891 5.32 18.573 8.94 34.516 8.94z" fill="#d1e16f"/><path d="m356.101 434.297c7.891 5.32 18.573 8.94 34.516 8.94-37.707 28.001-84.426 44.572-135.015 44.572-55.17 0-105.73-19.701-145.027-52.462 34.536 24.241 76.614 38.461 122.023 38.461 46.049.001 88.687-14.64 123.503-39.511z" fill="#9ccc4b"/><g><path d="m511.905 370.358c0 10.588-8.594 19.18-19.183 19.18h-101.949c-14.443 0-26.148-11.712-26.148-26.152 0-14.433 11.706-26.145 26.148-26.145 6.017 0 11.56 2.034 15.98 5.451 3.334-18.607 19.604-32.734 39.169-32.734 8.907 0 17.142 2.928 23.778 7.874 9.718 7.255 16.018 18.852 16.018 31.916 0 .933-.031 1.865-.092 2.783 2.194-.871 4.587-1.353 7.095-1.353 10.59 0 19.184 8.585 19.184 19.18z" fill="#e6f8fc"/><path d="m511.905 370.358c0 10.588-8.594 19.18-19.183 19.18h-101.949c-14.443 0-26.148-11.712-26.148-26.152 0 7.178 8.877 13.646 16.048 13.646h56.724c21.156-.206 38.236-17.422 38.236-38.621 0-7.568-2.171-14.624-5.933-20.579 9.718 7.255 16.018 18.852 16.018 31.916 0 .933-.031 1.865-.092 2.783 2.194-.871 4.587-1.353 7.095-1.353 10.59 0 19.184 8.585 19.184 19.18z" fill="#d0edf5"/></g></g><path d="m504.5 253.428h-497c-4.142 0-7.5 3.358-7.5 7.5s3.358 7.5 7.5 7.5h497c4.142 0 7.5-3.358 7.5-7.5s-3.358-7.5-7.5-7.5z" fill="#3a4b56"/></g><path d="m224.87 373.75c-.03-.22.1-.45.36-.69z" fill="#b77e5a"/></g></g></svg>