<svg id="Layer_1_1_" enable-background="new 0 0 64 64" height="512" viewBox="0 0 64 64" width="512" xmlns="http://www.w3.org/2000/svg"><circle cx="10" cy="30" fill="#eb4f53" r="2"/><path d="m17.186 16.702c-.119-.549-.186-1.117-.186-1.702 0-4.418 3.582-8 8-8 1.111 0 2.169.227 3.131.637 1.536-2.764 4.482-4.637 7.869-4.637 2.952 0 5.564 1.428 7.205 3.623 1.094-.708 2.395-1.123 3.795-1.123 3.354 0 6.153 2.36 6.837 5.508.055-.001.108-.008.163-.008 3.866 0 7 3.134 7 7 0 2.841-1.695 5.281-4.127 6.378-.654 3.761-3.926 6.622-7.873 6.622-1.805 0-3.464-.605-4.803-1.613-1.641 2.19-4.25 3.613-7.197 3.613-2.416 0-4.604-.957-6.221-2.506-.867.322-1.8.506-2.779.506-2.624 0-4.946-1.269-6.405-3.221-.509.14-1.042.221-1.595.221-3.314 0-6-2.686-6-6 0-2.296 1.291-4.289 3.186-5.298z" fill="#eb4f53"/><circle cx="37" cy="18" fill="#d9d9d7" r="9"/><g fill="#5eb2d0"><circle cx="34" cy="47" r="2"/><path d="m35 49h-2c-1.1 0-2 .9-2 2v4l1 1v5h4v-5l1-1v-4c0-1.1-.9-2-2-2z"/><circle cx="44" cy="47" r="2"/><path d="m45 49h-2c-1.1 0-2 .9-2 2v4l1 1v5h4v-5l1-1v-4c0-1.1-.9-2-2-2z"/><circle cx="54" cy="47" r="2"/><path d="m55 49h-2c-1.1 0-2 .9-2 2v4l1 1v5h4v-5l1-1v-4c0-1.1-.9-2-2-2z"/><path d="m3 47v5l2 1v8h6v-8l2-1v-5c0-2.209-1.791-4-4-4h-2c-2.209 0-4 1.791-4 4z"/></g><path d="m5 58.607v2.393h6v-6.081c-1.563 1.775-3.639 3.079-6 3.688z" fill="#529bb5"/><circle cx="8" cy="40" fill="#5eb2d0" r="3"/><path d="m17 47v5l2 1v8h6v-8l2-1v-5c0-2.209-1.791-4-4-4h-2c-2.209 0-4 1.791-4 4z" fill="#5eb2d0"/><path d="m19 58.607v2.393h6v-6.081c-1.563 1.775-3.639 3.079-6 3.688z" fill="#529bb5"/><circle cx="22" cy="40" fill="#5eb2d0" r="3"/><path d="m7 30c0 1.654 1.346 3 3 3s3-1.346 3-3-1.346-3-3-3-3 1.346-3 3zm4 0c0 .552-.448 1-1 1s-1-.448-1-1 .448-1 1-1 1 .448 1 1z"/><path d="m37 8c-5.514 0-10 4.486-10 10s4.486 10 10 10 10-4.486 10-10-4.486-10-10-10zm0 18c-4.411 0-8-3.589-8-8s3.589-8 8-8 8 3.589 8 8-3.589 8-8 8z"/><path d="m37 15c.552 0 1 .448 1 1h2c0-1.302-.839-2.402-2-2.816v-1.184h-2v1.184c-1.161.414-2 1.514-2 2.816 0 1.654 1.346 3 3 3 .552 0 1 .448 1 1s-.448 1-1 1-1-.448-1-1h-2c0 1.302.839 2.402 2 2.816v1.184h2v-1.184c1.161-.414 2-1.514 2-2.816 0-1.654-1.346-3-3-3-.552 0-1-.448-1-1s.448-1 1-1z"/><path d="m30 51v4c0 .266.105.52.293.707l.707.707v4.586c0 .553.447 1 1 1h4c.553 0 1-.447 1-1v-4.586l.707-.707c.188-.187.293-.441.293-.707v-4c0-1.065-.562-1.997-1.401-2.529.248-.437.401-.934.401-1.471 0-1.654-1.346-3-3-3s-3 1.346-3 3c0 .537.153 1.034.401 1.471-.839.532-1.401 1.464-1.401 2.529zm4-5c.552 0 1 .448 1 1s-.448 1-1 1-1-.448-1-1 .448-1 1-1zm-2 5c0-.552.448-1 1-1h2c.552 0 1 .448 1 1v3.586l-.707.707c-.188.187-.293.441-.293.707v4h-2v-4c0-.266-.105-.52-.293-.707l-.707-.707z"/><path d="m40 51v4c0 .266.105.52.293.707l.707.707v4.586c0 .553.447 1 1 1h4c.553 0 1-.447 1-1v-4.586l.707-.707c.188-.187.293-.441.293-.707v-4c0-1.065-.562-1.997-1.401-2.529.248-.437.401-.934.401-1.471 0-1.654-1.346-3-3-3s-3 1.346-3 3c0 .537.153 1.034.401 1.471-.839.532-1.401 1.464-1.401 2.529zm4-5c.552 0 1 .448 1 1s-.448 1-1 1-1-.448-1-1 .448-1 1-1zm-2 5c0-.552.448-1 1-1h2c.552 0 1 .448 1 1v3.586l-.707.707c-.188.187-.293.441-.293.707v4h-2v-4c0-.266-.105-.52-.293-.707l-.707-.707z"/><path d="m50 51v4c0 .266.105.52.293.707l.707.707v4.586c0 .553.447 1 1 1h4c.553 0 1-.447 1-1v-4.586l.707-.707c.188-.187.293-.441.293-.707v-4c0-1.065-.562-1.997-1.401-2.529.248-.437.401-.934.401-1.471 0-1.654-1.346-3-3-3s-3 1.346-3 3c0 .537.153 1.034.401 1.471-.839.532-1.401 1.464-1.401 2.529zm4-5c.552 0 1 .448 1 1s-.448 1-1 1-1-.448-1-1 .448-1 1-1zm-2 5c0-.552.448-1 1-1h2c.552 0 1 .448 1 1v3.586l-.707.707c-.188.187-.293.441-.293.707v4h-2v-4c0-.266-.105-.52-.293-.707l-.707-.707z"/><path d="m56.408 39.19 2.275.758c.428.144.897-.019 1.148-.394l2-3-1.664-1.109-1.576 2.364-2.275-.758c-.43-.145-.897.018-1.148.394l-2 3 1.664 1.109z"/><path d="m54.604 10.022c-1.058-3.243-4.138-5.522-7.604-5.522-1.239 0-2.453.287-3.555.837-1.897-2.131-4.565-3.337-7.445-3.337-3.339 0-6.442 1.672-8.292 4.415-.873-.275-1.78-.415-2.708-.415-4.963 0-9 4.037-9 9 0 .397.027.799.082 1.2-1.918 1.295-3.082 3.456-3.082 5.8 0 3.859 3.141 7 7 7 .398 0 .803-.036 1.207-.108 1.713 1.983 4.154 3.108 6.793 3.108.856 0 1.709-.125 2.542-.373 1.808 1.534 4.078 2.373 6.458 2.373 2.852 0 5.497-1.184 7.391-3.277 1.394.838 2.969 1.277 4.609 1.277 4.207 0 7.81-2.889 8.755-6.94 2.595-1.383 4.245-4.099 4.245-7.06 0-4.208-3.266-7.667-7.396-7.978zm1.858 13.446c-.303.136-.518.413-.574.739-.584 3.356-3.481 5.793-6.888 5.793-1.522 0-2.975-.488-4.201-1.412-.212-.159-.479-.229-.742-.191-.263.037-.5.178-.659.391-1.531 2.041-3.863 3.212-6.398 3.212-2.066 0-4.029-.791-5.529-2.228-.188-.182-.438-.278-.691-.278-.117 0-.234.021-.348.062-.794.295-1.613.444-2.432.444-2.222 0-4.265-1.027-5.604-2.819-.246-.33-.669-.477-1.065-.365-3.277.897-6.331-1.624-6.331-4.816 0-1.852 1.018-3.543 2.655-4.415.396-.211.603-.657.508-1.095-.108-.498-.163-.999-.163-1.49 0-3.859 3.141-7 7-7 .949 0 1.871.188 2.739.557.47.201 1.017.015 1.266-.435 1.413-2.542 4.094-4.122 6.995-4.122 2.54 0 4.874 1.174 6.404 3.222.314.421.902.526 1.344.241.974-.63 2.098-.963 3.252-.963 2.802 0 5.266 1.985 5.859 4.72.102.467.492.777.995.788l.146-.008c3.309 0 6 2.691 6 6 0 2.351-1.389 4.497-3.538 5.468z"/><path d="m2.553 52.895 1.447.723v7.382c0 .553.447 1 1 1h6c.553 0 1-.447 1-1v-7.382l1.447-.724c.339-.169.553-.515.553-.894v-5c0-2-1.188-3.717-2.889-4.516.548-.685.889-1.541.889-2.484 0-2.206-1.794-4-4-4s-4 1.794-4 4c0 .943.341 1.799.889 2.484-1.701.799-2.889 2.516-2.889 4.516v5c0 .379.214.725.553.895zm5.447-14.895c1.103 0 2 .897 2 2s-.897 2-2 2-2-.897-2-2 .897-2 2-2zm-4 9c0-1.654 1.346-3 3-3h2c1.654 0 3 1.346 3 3v4.382l-1.447.724c-.339.169-.553.515-.553.894v7h-4v-7c0-.379-.214-.725-.553-.895l-1.447-.723z"/><path d="m16 47v5c0 .379.214.725.553.895l1.447.723v7.382c0 .553.447 1 1 1h6c.553 0 1-.447 1-1v-7.382l1.447-.724c.339-.169.553-.515.553-.894v-5c0-2-1.188-3.717-2.889-4.516.548-.685.889-1.541.889-2.484 0-2.206-1.794-4-4-4s-4 1.794-4 4c0 .943.341 1.799.889 2.484-1.701.799-2.889 2.516-2.889 4.516zm6-9c1.103 0 2 .897 2 2s-.897 2-2 2-2-.897-2-2 .897-2 2-2zm-4 9c0-1.654 1.346-3 3-3h2c1.654 0 3 1.346 3 3v4.382l-1.447.724c-.339.169-.553.515-.553.894v7h-4v-7c0-.379-.214-.725-.553-.895l-1.447-.723z"/></svg>