<?xml version="1.0"?>
<svg xmlns="http://www.w3.org/2000/svg" xmlns:xlink="http://www.w3.org/1999/xlink" xmlns:svgjs="http://svgjs.com/svgjs" version="1.1" width="512" height="512" x="0" y="0" viewBox="0 0 512 512" style="enable-background:new 0 0 512 512" xml:space="preserve" class=""><g><g xmlns="http://www.w3.org/2000/svg"><path d="m417.27 324.34-11.207-7.978c-.428-.305-.683-.799-.683-1.323v-20.868h7.952c9.158 0 16.608-7.45 16.608-16.608v-32.122c0-9.158-7.45-16.608-16.608-16.608h-103.962c-9.158 0-16.608 7.45-16.608 16.608v32.122c0 9.158 7.45 16.608 16.608 16.608h7.951v20.868c0 .523-.255 1.018-.68 1.32l-11.21 7.98c-20 14.241-31.94 37.399-31.94 61.949v33.34c0 4.142 3.358 7.5 7.5 7.5s7.5-3.358 7.5-7.5v-33.34c0-19.708 9.585-38.298 25.64-49.73l11.213-7.982c4.369-3.113 6.978-8.174 6.978-13.538v-20.868h58.06v20.868c0 5.363 2.608 10.424 6.98 13.54l11.209 7.979c16.055 11.432 25.64 30.023 25.64 49.73v110.713h-145.721v-42.37c0-4.142-3.358-7.5-7.5-7.5s-7.5 3.358-7.5 7.5v43.9c0 7.428 6.042 13.47 13.47 13.47h148.78c7.427 0 13.47-6.042 13.47-13.47v-112.24c0-24.55-11.939-47.708-31.94-61.95zm-109.508-46.776v-32.122c0-.887.721-1.608 1.608-1.608h103.963c.887 0 1.608.721 1.608 1.608v32.122c0 .887-.721 1.608-1.608 1.608-13.623 0-92.682 0-103.963 0-.887 0-1.608-.721-1.608-1.608z" fill="#ffffff" data-original="#000000" style="" class=""/><path d="m241.345 90.925h-74.525v-43.75h60.04c7.544 0 13.681-6.137 13.681-13.681v-2.777c.001-16.938-13.779-30.717-30.716-30.717h-101.012c-16.938 0-30.717 13.779-30.717 30.717v2.777c0 7.544 6.137 13.681 13.681 13.681h60.043v43.75h-74.527c-7.997 0-14.503 6.506-14.503 14.503v23.845c0 7.997 6.506 14.503 14.503 14.503h16.179v83.221c0 4.142 3.358 7.5 7.5 7.5s7.5-3.358 7.5-7.5v-43.222h101.693v134.55h-101.693v-56.328c0-4.142-3.358-7.5-7.5-7.5s-7.5 3.358-7.5 7.5v58.33c0 5.872 3.917 10.842 9.274 12.448v1.973c0 13.995 10.316 25.626 23.743 27.688v12.328c0 14.904 11.015 27.281 25.331 29.426v100.31c0 4.142 3.358 7.5 7.5 7.5s7.5-3.358 7.5-7.5v-100.309c14.315-2.146 25.328-14.522 25.328-29.425v-12.327c13.427-2.062 23.744-13.693 23.744-27.688v-1.973c5.357-1.606 9.274-6.576 9.274-12.448v-176.553h16.179c7.997 0 14.503-6.506 14.503-14.503v-23.845c0-7.997-6.506-14.504-14.503-14.504zm-148.249-60.208c0-8.667 7.051-15.717 15.717-15.717h101.012c8.666 0 15.717 7.05 15.717 15.717v1.458c-15.452 0-116.698 0-132.445 0v-1.458zm69.295 358.805c-.165 0-6.379 0-6.146 0-8.137 0-14.756-6.62-14.756-14.756v-12.002h35.658v12.002c0 8.136-6.619 14.756-14.756 14.756zm25.487-41.759h-57.119c-7.175 0-13.013-5.838-13.013-13.013v-1.423h83.146v1.423c0 7.175-5.838 13.013-13.014 13.013zm22.288-178.986h-101.694v-25h101.693v25zm30.682-40h-163.058v-22.852h163.059v22.852z" fill="#ffffff" data-original="#000000" style="" class=""/><path d="m148.559 221.164h21.521c4.142 0 7.5-3.358 7.5-7.5s-3.358-7.5-7.5-7.5h-21.521c-4.142 0-7.5 3.358-7.5 7.5s3.358 7.5 7.5 7.5z" fill="#ffffff" data-original="#000000" style="" class=""/><path d="m148.559 258.552h21.521c4.142 0 7.5-3.358 7.5-7.5s-3.358-7.5-7.5-7.5h-21.521c-4.142 0-7.5 3.358-7.5 7.5s3.358 7.5 7.5 7.5z" fill="#ffffff" data-original="#000000" style="" class=""/><path d="m148.559 295.939h21.521c4.142 0 7.5-3.358 7.5-7.5s-3.358-7.5-7.5-7.5h-21.521c-4.142 0-7.5 3.358-7.5 7.5s3.358 7.5 7.5 7.5z" fill="#ffffff" data-original="#000000" style="" class=""/><path d="m361.351 197.86c22.604 0 40.994-18.39 40.994-40.994 0-20.203-29.361-56.241-35.247-63.26-1.425-1.7-3.529-2.681-5.747-2.681s-4.322.981-5.747 2.681c-5.886 7.019-35.247 43.057-35.247 63.26 0 22.604 18.39 40.994 40.994 40.994zm0-87.476c11.791 15.188 25.994 36.685 25.994 46.482 0 14.333-11.661 25.994-25.994 25.994s-25.994-11.661-25.994-25.994c0-9.797 14.204-31.294 25.994-46.482z" fill="#ffffff" data-original="#000000" style="" class=""/><path d="m394.043 455.325c5.856 0 10.62-4.764 10.62-10.621v-51.111c0-5.856-4.764-10.62-10.62-10.62h-65.384c-5.856 0-10.62 4.764-10.62 10.62v51.111c0 5.856 4.764 10.621 10.62 10.621zm-61.004-57.352h56.624v42.352h-56.624z" fill="#ffffff" data-original="#000000" style="" class=""/></g></g></svg>
