<svg enable-background="new 0 0 64 64" height="512" viewBox="0 0 64 64" width="512" xmlns="http://www.w3.org/2000/svg"><g id="Icons"><g><g><path d="m55.893 42c-.493-1.581-2.419-2.323-3.863-1.36l-8.04 5.35-10.021.005c-1.656.001-2.999-1.341-2.999-2.998 0-1.656 1.342-2.998 2.998-2.998h2.832c1.6 0 3.05-1.18 3.16-2.78.134-1.756-1.271-3.22-2.99-3.22h-10.237c-2.497 0-4.829 1.248-6.214 3.326l-.236.353c-.966 1.45-2.572 2.32-4.315 2.32v12l28.349-.01c1.083 0 2.133-.368 2.98-1.043l7.752-6.178c.829-.65 1.159-1.756.844-2.767z" fill="#f0c8a0"/><path d="m14.968 56h-5.978c-.552 0-1-.448-1-1v-18c0-.552.448-1 1-1h5.979c.552 0 1 .448 1 1v18c-.001.552-.448 1-1.001 1z" fill="#00a0c8"/><path d="m14.968 56h-5.978c-.552 0-1-.448-1-1v-5.011c0-2.203 1.786-3.989 3.989-3.989s3.989 1.786 3.989 3.989v5.011c0 .552-.447 1-1 1z" fill="#0082aa"/><circle cx="11.99" cy="50" fill="#00325a" r="2"/></g><path d="m56 13v16c0 .55-.45 1-1 1h-26c-.55 0-1-.45-1-1v-16c0-.55.45-1 1-1h26c.55 0 1 .45 1 1z" fill="#00a0c8"/><path d="m50 17v4c0 3.61-1.34 6.63-3.66 9h-8.68c-2.32-2.36-3.66-5.38-3.66-9v-4c0-1.1.9-2 2-2h12c1.1 0 2 .9 2 2z" fill="#0082aa"/><g><path d="m36 14.002c-1.105 0-2 .895-2 2v4c0 5.304 2.898 9.346 7.516 11.876.298.163.67.163.969 0 4.625-2.535 7.515-6.582 7.515-11.876v-4c0-1.105-.895-2-2-2z" fill="#fab400"/><path d="m42.546 29.504c-.327.215-.764.215-1.091 0-3.392-2.233-5.455-5.348-5.455-9.502v-3c0-.552.448-1 1-1h10c.552 0 1 .448 1 1v3c0 4.155-2.063 7.269-5.454 9.502z" fill="#c80a50"/><path d="m45 18.293c-.391-.39-1.024-.39-1.414 0-.001.001-4.585 4.585-4.586 4.586-.391.391-.39 1.024 0 1.414.391.39 1.024.39 1.414 0 .22-.22 4.32-4.32 4.586-4.586.391-.391.39-1.024 0-1.414z" fill="#d2d2d2"/></g><path d="m46 10v2h-2v-2h-4v2h-2v-2c0-1.105.895-2 2-2h4c1.105 0 2 .895 2 2z" fill="#00143c"/><path d="m40.414 18.293c-.39-.39-1.024-.39-1.414 0-.391.39-.391 1.024 0 1.414l4.586 4.586c.39.39 1.024.39 1.414 0 .391-.39.391-1.024 0-1.414z" fill="#f0f0f0"/><g fill="#00143c"><path d="m34 12h-4v-1c0-.552.448-1 1-1h2c.552 0 1 .448 1 1z"/><path d="m54 12h-4v-1c0-.552.448-1 1-1h2c.552 0 1 .448 1 1z"/></g></g></g></svg>